<svg width="2118" height="1405" viewBox="0 0 2118 1405" fill="none" xmlns="http://www.w3.org/2000/svg">
<g clip-path="url(#clip0_2272_10)">
<rect width="2118" height="1405" rx="702.5" fill="#FA1010" fill-opacity="0.41"/>
<path d="M1440.99 1124.35L783.409 370.602L1748.66 172.572L1440.99 1124.35Z" fill="#263238"/>
<path d="M769.25 396.98L1414.3 1130.6L456.442 1322.42L769.25 396.98Z" fill="#6C8397"/>
<path d="M566.312 933.703L808.5 569.641C812.406 563.651 816.312 559.354 820.219 556.75C824.385 554.146 828.422 552.844 832.328 552.844C837.276 552.844 841.312 554.927 844.438 559.094C847.823 563 849.516 567.948 849.516 573.938V960.656C849.516 968.208 848.604 974.719 846.781 980.188C844.958 985.396 840.271 988 832.719 988C826.208 988 821.781 985.396 819.438 980.188C817.354 974.719 816.312 968.208 816.312 960.656V613.781L585.453 954.406C579.203 963.26 572.823 967.688 566.312 967.688C559.281 967.688 552.901 963.26 547.172 954.406L316.312 613.781V960.656C316.312 968.208 315.141 974.719 312.797 980.188C310.714 985.396 306.417 988 299.906 988C292.354 988 287.667 985.396 285.844 980.188C284.021 974.719 283.109 968.208 283.109 960.656V573.938C283.109 567.948 284.672 563 287.797 559.094C291.182 554.927 295.349 552.844 300.297 552.844C303.943 552.844 307.719 554.146 311.625 556.75C315.792 559.354 319.958 563.651 324.125 569.641L566.312 933.703Z" fill="white"/>
<path d="M851.094 960.656C851.094 968.208 849.922 974.719 847.578 980.188C845.495 985.396 841.328 988 835.078 988C827.526 988 822.708 985.396 820.625 980.188C818.802 974.719 817.891 968.469 817.891 961.438V567.297C817.891 563.391 817.891 560.526 817.891 558.703C818.151 556.62 818.672 555.188 819.453 554.406C820.234 553.625 821.536 553.234 823.359 553.234C825.443 552.974 828.438 552.844 832.344 552.844H1214.38C1217.76 552.844 1220.89 552.974 1223.75 553.234C1226.88 553.234 1229.48 553.755 1231.56 554.797C1233.91 555.578 1235.73 556.88 1237.03 558.703C1238.33 560.526 1238.98 563.13 1238.98 566.516C1238.98 572.505 1236.77 576.021 1232.34 577.062C1227.92 578.104 1221.93 578.625 1214.38 578.625H851.094V755.969H1158.52C1166.07 755.969 1172.19 756.49 1176.88 757.531C1181.82 758.573 1184.3 762.089 1184.3 768.078C1184.3 771.464 1183.52 774.068 1181.95 775.891C1180.65 777.714 1178.83 779.146 1176.48 780.188C1174.14 780.969 1171.41 781.49 1168.28 781.75C1165.16 781.75 1161.9 781.75 1158.52 781.75H851.094V960.656Z" fill="white"/>
<path d="M1580.02 967.422C1619.34 967.422 1656.84 964.818 1692.52 959.609C1728.19 954.401 1764.13 947.5 1800.33 938.906V775.625H1601.11C1597.98 775.625 1594.73 775.625 1591.34 775.625C1588.22 775.365 1585.22 774.844 1582.36 774.062C1579.76 773.021 1577.54 771.589 1575.72 769.766C1574.16 767.943 1573.38 765.339 1573.38 761.953C1573.38 758.568 1574.16 755.964 1575.72 754.141C1577.54 752.318 1579.76 751.016 1582.36 750.234C1584.96 749.193 1587.83 748.672 1590.95 748.672C1594.34 748.411 1597.72 748.281 1601.11 748.281H1800.33C1811.27 748.281 1818.69 750.365 1822.59 754.531C1826.5 758.698 1828.45 765.729 1828.45 775.625V938.906C1828.45 946.979 1825.46 953.229 1819.47 957.656C1813.48 961.823 1807.1 964.557 1800.33 965.859C1761.79 973.411 1724.42 979.792 1688.22 985C1652.02 990.469 1615.95 993.203 1580.02 993.203C1531.58 993.203 1489 989.036 1452.28 980.703C1415.82 972.37 1385.35 959.219 1360.88 941.25C1336.4 923.021 1317.91 899.714 1305.41 871.328C1293.17 842.682 1287.05 808.047 1287.05 767.422C1287.05 726.797 1293.17 692.292 1305.41 663.906C1317.91 635.26 1336.4 611.953 1360.88 593.984C1385.35 575.755 1415.82 562.474 1452.28 554.141C1489 545.807 1531.58 541.641 1580.02 541.641C1613.87 541.641 1646.68 544.766 1678.45 551.016C1710.22 557.005 1742.52 566.771 1775.33 580.312C1779.49 582.135 1782.49 584.479 1784.31 587.344C1786.14 589.948 1787.05 592.552 1787.05 595.156C1787.05 598.281 1785.88 601.016 1783.53 603.359C1781.19 605.703 1778.19 606.875 1774.55 606.875C1773.51 606.875 1771.03 606.224 1767.12 604.922C1737.18 592.422 1706.19 583.047 1674.16 576.797C1642.12 570.547 1610.74 567.422 1580.02 567.422C1533.66 567.422 1494.08 571.328 1461.27 579.141C1428.45 586.693 1401.5 598.672 1380.41 615.078C1359.57 631.224 1344.34 651.927 1334.7 677.188C1325.07 702.188 1320.25 732.266 1320.25 767.422C1320.25 802.578 1325.07 832.786 1334.7 858.047C1344.34 883.047 1359.57 903.75 1380.41 920.156C1401.5 936.302 1428.45 948.281 1461.27 956.094C1494.08 963.646 1533.66 967.422 1580.02 967.422Z" fill="white"/>
</g>
<defs>
<clipPath id="clip0_2272_10">
<rect width="2118" height="1405" rx="702.5" fill="white"/>
</clipPath>
</defs>
</svg>
